<?xml version="1.0" encoding="UTF-8" standalone="no"?>
<svg
   xmlns:dc="http://purl.org/dc/elements/1.1/"
   xmlns:cc="http://creativecommons.org/ns#"
   xmlns:rdf="http://www.w3.org/1999/02/22-rdf-syntax-ns#"
   xmlns:svg="http://www.w3.org/2000/svg"
   xmlns="http://www.w3.org/2000/svg"
   xmlns:sodipodi="http://sodipodi.sourceforge.net/DTD/sodipodi-0.dtd"
   xmlns:inkscape="http://www.inkscape.org/namespaces/inkscape"
   version="1.1"
   viewBox="0 0 104.54265 99.558281"
   x="0px"
   y="0px"
   id="svg49"
   sodipodi:docname="check.svg"
   width="104.54265"
   height="99.558281"
   inkscape:version="0.92.2 5c3e80d, 2017-08-06">
  <metadata
     id="metadata55">
    <rdf:RDF>
      <cc:Work
         rdf:about="">
        <dc:format>image/svg+xml</dc:format>
        <dc:type
           rdf:resource="http://purl.org/dc/dcmitype/StillImage" />
        <dc:title></dc:title>
      </cc:Work>
    </rdf:RDF>
  </metadata>
  <defs
     id="defs53" />
  <sodipodi:namedview
     pagecolor="#ffffff"
     bordercolor="#666666"
     borderopacity="1"
     objecttolerance="10"
     gridtolerance="10"
     guidetolerance="10"
     inkscape:pageopacity="0"
     inkscape:pageshadow="2"
     inkscape:window-width="3840"
     inkscape:window-height="2024"
     id="namedview51"
     showgrid="false"
     inkscape:pagecheckerboard="true"
     fit-margin-top="0"
     fit-margin-left="0"
     fit-margin-right="0"
     fit-margin-bottom="0"
     inkscape:snap-global="true"
     inkscape:zoom="13.944"
     inkscape:cx="51.685356"
     inkscape:cy="40.237984"
     inkscape:window-x="0"
     inkscape:window-y="0"
     inkscape:window-maximized="1"
     inkscape:current-layer="svg49" />
  <g
     id="main"
     transform="matrix(0.09622324,0,0,-0.09622324,-8.1328664,115.1196)"
     style="fill:none;fill-rule:evenodd;stroke:#ffffff;stroke-width:51.96249771;stroke-linecap:round;stroke-linejoin:round;stroke-miterlimit:4;stroke-dasharray:none;paint-order:stroke markers fill"
     inkscape:label="">
    <g
       id="g45"
       style="fill:#af2227;stroke-width:51.96249771;stroke-linecap:round;stroke-linejoin:round;stroke-miterlimit:4;stroke-dasharray:none;paint-order:stroke markers fill">
      <path
         d="m 343.2,187.7 c 0,0 -9.7,35.1 -42.5,114.9 l -20.9,48.5 c 0,0 -44.8,104.5 -83.2,154.5 0,0 -38.4,50 -86.1,66.4 0,0 80.5,85.1 147.7,85.1 0,0 57.4,0 127.5,-156 l 23.1,-52.2 c 0,0 126.1,212.6 323.7,413.3 0,0 197.7,200.7 386.4,308.2 l 26.1,-37.3 c 0,0 -159.6,-120.1 -355,-370.1 0,0 -195.5,-250 -298.4,-467.1 l -55.2,-37.3 c 0,0 -68.6,-47.7 -93.2,-70.9 z"
         id="path43"
         inkscape:connector-curvature="0"
         style="stroke-width:51.96249771;stroke-linecap:round;stroke-linejoin:round;stroke-miterlimit:4;stroke-dasharray:none;paint-order:stroke markers fill" />
    </g>
  </g>
</svg>
