<?xml version="1.0" encoding="UTF-8" standalone="no"?>
<svg
   xmlns:dc="http://purl.org/dc/elements/1.1/"
   xmlns:cc="http://creativecommons.org/ns#"
   xmlns:rdf="http://www.w3.org/1999/02/22-rdf-syntax-ns#"
   xmlns:svg="http://www.w3.org/2000/svg"
   xmlns="http://www.w3.org/2000/svg"
   width="166.37019mm"
   height="27.03805mm"
   viewBox="0 0 166.37019 27.03805"
   version="1.1"
   id="svg8">
  <defs
     id="defs2" />
  <metadata
     id="metadata5">
    <rdf:RDF>
      <cc:Work
         rdf:about="">
        <dc:format>image/svg+xml</dc:format>
        <dc:type
           rdf:resource="http://purl.org/dc/dcmitype/StillImage" />
        <dc:title></dc:title>
      </cc:Work>
    </rdf:RDF>
  </metadata>
  <g
     id="layer1"
     transform="translate(-23.925588,-48.480774)">
    <g
       aria-label="deFACTO"
       style="font-style:normal;font-variant:normal;font-weight:normal;font-stretch:normal;font-size:37.54164505px;line-height:1.25;font-family:'Stardos Stencil';-inkscape-font-specification:'Stardos Stencil';letter-spacing:0px;word-spacing:0px;fill:#000000;fill-opacity:1;stroke:none;stroke-width:0.93854111"
       id="text817">
      <path
         d="M 35.694014,73.429104 V 51.670347 q 0,-0.971536 -0.861552,-1.338154 -0.366617,-0.146647 -0.788227,-0.238301 -0.421611,-0.109986 -0.769897,-0.348287 v -1.264831 h 7.863948 v 23.591844 q 0,0.953206 0.84322,1.301493 0.348287,0.146647 0.714905,0.256632 0.384948,0.109986 0.659911,0.348287 v 1.173176 h -7.424007 z m -1.631449,1.448139 q -1.099852,0.549927 -2.657977,0.549927 -1.558125,0 -2.969603,-0.714905 -1.411478,-0.733235 -2.401346,-1.979735 -2.108051,-2.584654 -2.108051,-6.45247 0,-4.179441 2.438007,-7.112382 2.364684,-2.804625 5.627581,-2.804625 1.264831,0 2.071389,0.348287 v 2.08972 q -0.384948,-0.238301 -1.154845,-0.238301 -0.751566,0 -1.338154,0.586588 -0.568258,0.586588 -0.916545,1.558125 -0.64158,1.814757 -0.64158,4.216103 0,2.401345 0.09165,3.776161 0.09165,1.374816 0.403279,2.383015 0.641581,2.144713 2.383015,2.144713 0.806559,0 1.173176,-0.329956 z"
         style="font-style:normal;font-variant:normal;font-weight:bold;font-stretch:normal;font-family:'Stardos Stencil';-inkscape-font-specification:'Stardos Stencil Bold';fill:#af222f;fill-opacity:0.94117647"
         id="path1487" />
      <path
         d="m 55.454705,73.227464 q 3.684507,-0.183309 4.949338,-4.069456 l 1.686441,0.769897 q -1.374816,5.040993 -6.635779,5.499265 z M 54.904778,56.363053 q 3.776162,0.274963 5.664243,3.006265 1.686441,2.419676 1.686441,6.470801 h -9.440404 v -1.86975 h 3.794492 q 0,-2.346353 -0.366617,-3.702838 -0.348287,-1.374816 -1.338155,-1.704772 z M 53.823256,75.42717 q -3.977801,-0.311625 -6.415808,-3.097919 -2.27303,-2.584655 -2.27303,-6.360816 0,-3.959471 2.291361,-6.65411 2.273029,-2.69464 5.847551,-2.951272 v 2.199706 q -1.209838,0.42161 -1.704772,2.273029 -0.476603,1.851419 -0.476603,4.179441 0,2.309691 0.109985,3.464537 0.128316,1.136514 0.439941,2.053058 0.641581,1.924743 2.181375,2.69464 z"
         style="font-style:normal;font-variant:normal;font-weight:bold;font-stretch:normal;font-family:'Stardos Stencil';-inkscape-font-specification:'Stardos Stencil Bold';fill:#af222f;fill-opacity:0.94117647"
         id="path1489" />
      <path
         d="m 73.822245,49.104024 v 21.575447 q 0,1.484802 0.329956,1.924743 0.348287,0.439941 0.641581,0.568257 0.311625,0.109986 0.659912,0.183309 0.366617,0.07332 0.769897,0.164978 0.42161,0.07332 0.861551,0.274963 v 1.356485 H 65.115077 v -1.356485 q 0.494933,-0.201639 0.953205,-0.293294 0.476603,-0.109985 0.843221,-0.293294 0.82489,-0.403279 0.82489,-1.539794 V 53.448443 q 0,-1.44814 -0.293294,-1.851419 -0.293295,-0.42161 -0.549927,-0.531596 -0.238301,-0.109985 -0.531595,-0.164978 -0.843221,-0.164978 -1.2465,-0.42161 v -1.374816 z m 7.259029,0 q 3.11625,0 4.546059,-0.274963 v 8.872146 h -1.283162 q -0.549926,-0.458272 -0.861551,-1.136514 -0.311625,-0.696574 -0.604919,-1.44814 -0.293294,-0.769897 -0.678243,-1.521463 -0.366618,-0.751566 -1.063191,-1.356485 -1.521463,-1.374816 -4.601051,-1.374816 -0.586588,0 -1.081522,0.05499 v -1.814757 z m -5.62758,11.475132 0.971536,-0.07332 q 1.888081,-0.128316 2.456339,-1.356485 0.164978,-0.348287 0.311625,-0.714904 0.42161,-0.989868 0.898213,-1.44814 h 1.356485 v 9.073786 h -1.356485 q -0.458272,-0.384948 -0.788228,-1.04486 -0.311625,-0.659912 -0.549927,-0.989868 -0.21997,-0.348286 -0.62325,-0.62325 -0.879882,-0.62325 -2.676308,-0.714904 z"
         style="font-style:normal;font-variant:normal;font-weight:bold;font-stretch:normal;font-family:'Stardos Stencil';-inkscape-font-specification:'Stardos Stencil Bold';stroke-width:0.93854111"
         id="path1491" />
      <path
         d="m 94.737783,53.063494 -2.639647,-0.806558 q 0.109986,-0.769897 0.146647,-1.374817 0.03666,-0.623249 0.146647,-1.099852 1.594787,-0.714905 5.297625,-1.173177 0.586588,-0.07332 1.02653,-0.07332 0.458272,0.549926 0.659911,1.04486 l 8.487194,21.373808 q 0.54993,1.411477 1.26484,2.08972 0.73323,0.659912 1.83308,0.751566 v 1.356485 H 99.24718 v -1.154845 q 0.458272,-0.274963 0.93488,-0.403279 0.49493,-0.146648 0.89821,-0.274964 0.87988,-0.256632 0.87988,-0.916544 0,-0.366617 -0.34829,-1.264831 z m 0.311625,5.664243 -4.124448,11.805087 q -0.293294,0.82489 -0.293294,1.374816 0,0.549927 0.311625,0.861552 0.311625,0.293294 0.769897,0.476603 0.476603,0.164978 1.008198,0.293294 0.531596,0.128316 0.989868,0.366617 v 1.2465 h -8.780492 v -1.2465 q 0.366617,-0.238301 0.788228,-0.384948 0.439941,-0.146647 0.879882,-0.384949 1.026529,-0.604919 1.539794,-1.998066 L 93.83957,55.483171 Z m 3.299559,8.615514 H 93.83957 l 0.604919,-1.943073 h 3.171243 z"
         style="font-style:normal;font-variant:normal;font-weight:bold;font-stretch:normal;font-family:'Stardos Stencil';-inkscape-font-specification:'Stardos Stencil Bold';stroke-width:0.93854111"
         id="path1493" />
      <path
         d="m 124.2505,73.172471 q 2.29136,-0.03666 3.70284,-1.46647 1.81476,-1.796427 2.08972,-5.939206 l 2.10805,0.714905 q -0.51326,6.122514 -4.38108,8.193904 -1.44814,0.769897 -3.51953,0.84322 z m -6.12251,-11.273492 q 0,10.283625 4.49106,11.273492 v 2.346353 q -5.09598,-0.219971 -8.23056,-3.977801 -3.06126,-3.702838 -3.06126,-9.385411 0,-5.884213 3.2079,-9.752029 1.52147,-1.814758 3.59286,-2.841287 2.07139,-1.026529 4.49106,-1.026529 v 2.346352 q -3.61118,0.568258 -4.27109,6.709103 -0.21997,1.943073 -0.21997,4.307757 z m 6.12251,-13.363212 q 1.50313,0.21997 2.52966,0.714904 1.04486,0.494934 1.41148,0.696574 0.38495,0.201639 0.64158,0.201639 0.25663,0 0.43994,-0.293294 0.20164,-0.293294 0.42161,-0.751566 h 1.74144 v 9.458735 h -1.39315 q -0.45827,-0.641581 -1.06319,-2.126382 -0.60492,-1.503133 -1.0082,-2.328022 -0.38495,-0.82489 -0.89821,-1.503133 -1.19151,-1.521463 -2.82296,-1.723103 z"
         style="font-style:normal;font-variant:normal;font-weight:bold;font-stretch:normal;font-family:'Stardos Stencil';-inkscape-font-specification:'Stardos Stencil Bold';stroke-width:0.93854111"
         id="path1495" />
      <path
         d="m 134.36915,48.829061 q 2.36468,0.274963 2.62131,0.274963 h 3.90448 v 1.851419 q -2.84129,0.274963 -3.66618,2.859618 -0.21997,0.733235 -0.43994,1.429808 -0.56825,1.833088 -1.28316,2.419677 h -1.13651 z m 14.26142,21.777087 q 0,2.053059 0.91655,2.529661 0.42161,0.20164 0.9532,0.274964 0.54993,0.07332 1.13652,0.384948 v 1.356485 h -12.17171 v -1.356485 q 0.58659,-0.201639 1.13652,-0.329956 0.54992,-0.146647 0.98986,-0.366617 0.93488,-0.513265 0.93488,-1.66811 V 49.104024 h 6.10418 z m 5.53593,-21.502124 q 0.25663,0 2.62131,-0.274963 v 8.835485 h -1.13651 q -0.71491,-0.586589 -1.11818,-1.851419 -0.38495,-1.264831 -0.62325,-1.979736 -0.23831,-0.733235 -0.65992,-1.338154 -0.93487,-1.338154 -2.98793,-1.539794 v -1.851419 z"
         style="font-style:normal;font-variant:normal;font-weight:bold;font-stretch:normal;font-family:'Stardos Stencil';-inkscape-font-specification:'Stardos Stencil Bold';stroke-width:0.93854111"
         id="path1497" />
      <path
         id="path1499"
         transform="matrix(0.26458333,0,0,0.26458333,23.925588,48.480774)"
         d="m 552.17773,0.20703125 c -13.1174,0.64663181 -23.64745,6.07369095 -31.59179,16.28124975 -7.4363,9.560925 -11.1543,21.246413 -11.1543,35.056641 0,13.810225 3.78648,25.380952 11.36133,34.710937 8.03671,10.022809 18.72976,15.335101 32.07812,15.935551 v -8.869144 c -6.65108,-1.016136 -11.43193,-5.680292 -14.34179,-13.994141 -1.29326,-3.833608 -2.19311,-8.129349 -2.70118,-12.886719 -0.46188,-4.803555 -0.69335,-9.745486 -0.69335,-14.826172 0,-5.126873 0.23147,-10.115097 0.69335,-14.964843 1.61658,-16.904824 7.06581,-26.0962 16.34961,-27.5742191 z m 6.16602,0 V 9.0761719 c 10.21507,1.4592991 15.80301,13.1737711 16.79687,35.0703121 4.05046,-5.126871 8.8384,-10.748547 14.31641,-16.3125 0,0 1.89859,-1.908571 4.85156,-4.669922 -1.27949,-2.3242 -2.72897,-4.554288 -4.37109,-6.675781 C 582.08553,6.3269105 571.55353,0.89985141 558.34375,0.20703125 Z M 599.55273,37.080078 c -0.59508,0.743373 -1.18508,1.469446 -1.78906,2.242188 0,0 -16.56232,21.249844 -25.27734,39.482422 -2.59484,8.804892 -7.07075,13.658302 -13.44922,14.517578 v 8.869144 c 13.02501,-0.69282 23.39401,-6.005119 31.10742,-15.935551 7.29771,-9.422359 10.94727,-20.993086 10.94727,-34.710937 0,-5.108534 -0.5147,-9.928939 -1.53907,-14.464844 z"
         style="font-style:normal;font-variant:normal;font-weight:bold;font-stretch:normal;font-family:'Stardos Stencil';-inkscape-font-specification:'Stardos Stencil Bold';stroke-width:3.54724193" />
    </g>
    <g
       id="main"
       transform="matrix(0.02277904,0,0,-0.02277904,163.62198,75.900689)"
       style="fill:none;fill-rule:evenodd;stroke:#ffffff;stroke-width:51.96249771;stroke-linecap:round;stroke-linejoin:round;stroke-miterlimit:4;stroke-dasharray:none;paint-order:stroke markers fill">
      <g
         id="g45"
         style="fill:#af2227;stroke-width:51.96249771;stroke-linecap:round;stroke-linejoin:round;stroke-miterlimit:4;stroke-dasharray:none;paint-order:stroke markers fill" />
    </g>
    <path
       d="m 171.31201,71.76863 c 0,0 -0.22095,-0.799545 -0.96811,-2.617312 l -0.47608,-1.104783 c 0,0 -1.0205,-2.38041 -1.89521,-3.519362 0,0 -0.87472,-1.138952 -1.96128,-1.512528 0,0 1.83371,-1.938497 3.36447,-1.938497 0,0 1.30751,0 2.90432,3.55353 l 0.5262,1.189067 c 0,0 2.87244,-4.842825 7.37357,-9.414578 0,0 4.50342,-4.571753 8.80183,-7.0205 l 0.59453,0.849658 c 0,0 -3.63554,2.735763 -8.08656,8.430523 0,0 -4.4533,5.69476 -6.79727,10.64009 l -1.2574,0.849658 c 0,0 -1.56264,1.08656 -2.12301,1.615034 z"
       id="path43-3"
       style="fill:#af2227;fill-rule:evenodd;stroke:none;stroke-width:1.18365586;stroke-linecap:round;stroke-linejoin:round;stroke-miterlimit:4;stroke-dasharray:none;paint-order:stroke markers fill" />
  </g>
</svg>
